M48
; DRILL file {KiCad 5.1.4+dfsg1-1~bpo10+1} date 2019年09月21日 星期六 15时36分12秒
; FORMAT={-:-/ absolute / inch / decimal}
; #@! TF.CreationDate,2019-09-21T15:36:12+08:00
; #@! TF.GenerationSoftware,Kicad,Pcbnew,5.1.4+dfsg1-1~bpo10+1
; #@! TF.FileFunction,NonPlated,1,2,NPTH
FMAT,2
INCH
T1C0.0236
T2C0.0669
T3C0.1200
T4C0.1567
T5C0.1567
%
G90
G05
T1
X3.0654Y-2.7717
X3.2929Y-2.7717
T2
X8.425Y-4.4063
X8.825Y-4.4063
X3.6437Y-5.9062
X4.0438Y-5.9062
X13.0187Y-4.4062
X13.4187Y-4.4062
X11.05Y-5.1563
X11.45Y-5.1563
X10.675Y-4.4063
X11.075Y-4.4063
X12.4563Y-5.1563
X12.8563Y-5.1563
X10.3Y-5.1563
X10.7Y-5.1563
X5.2375Y-3.6563
X5.6375Y-3.6563
X9.55Y-5.1563
X9.95Y-5.1563
X5.425Y-4.4063
X5.825Y-4.4063
X11.05Y-5.9062
X11.45Y-5.9062
X11.2375Y-5.9062
X11.6375Y-5.9062
X3.925Y-4.4063
X4.325Y-4.4063
X5.8Y-5.1563
X6.2Y-5.1563
X12.925Y-3.6562
X13.325Y-3.6562
X12.7375Y-2.9063
X13.1375Y-2.9063
X7.675Y-4.4063
X8.075Y-4.4063
X11.6125Y-2.9063
X12.0125Y-2.9063
X6.925Y-4.4063
X7.325Y-4.4063
X10.8625Y-2.9063
X11.2625Y-2.9063
X11.8Y-5.1562
X12.2Y-5.1562
X6.175Y-4.4063
X6.575Y-4.4063
X7.1125Y-5.9062
X7.5125Y-5.9062
X4.4875Y-3.6563
X4.8875Y-3.6563
X2.8938Y-4.4063
X3.2938Y-4.4063
X3.7375Y-3.6563
X4.1375Y-3.6563
X10.1125Y-2.9063
X10.5125Y-2.9063
X2.8Y-3.6563
X3.2Y-3.6563
X10.4875Y-3.6563
X10.8875Y-3.6563
X3.925Y-5.905
X4.325Y-5.905
X9.7375Y-3.6563
X10.1375Y-3.6563
X8.6125Y-2.9063
X9.0125Y-2.9063
X12.3625Y-2.9062
X12.7625Y-2.9062
X8.9875Y-3.6563
X9.3875Y-3.6563
X8.8Y-5.1563
X9.2Y-5.1563
X8.2375Y-3.6563
X8.6375Y-3.6563
X8.05Y-5.1563
X8.45Y-5.1563
X7.3Y-5.1563
X7.7Y-5.1563
X12.925Y-5.9062
X13.325Y-5.9062
X6.55Y-5.1563
X6.95Y-5.1563
X3.74Y-5.905
X4.14Y-5.905
X11.2375Y-3.6563
X11.6375Y-3.6563
X5.05Y-5.1563
X5.45Y-5.1563
X4.3Y-5.1563
X4.7Y-5.1563
X3.55Y-5.1563
X3.95Y-5.1563
X4.675Y-5.905
X5.075Y-5.905
X3.0812Y-5.1562
X3.4812Y-5.1562
X12.6437Y-4.4062
X13.0437Y-4.4062
X11.425Y-4.4063
X11.825Y-4.4063
X12.175Y-4.4063
X12.575Y-4.4063
X6.7375Y-3.6563
X7.1375Y-3.6563
X9.925Y-4.4063
X10.325Y-4.4063
X2.6125Y-2.9062
X3.0125Y-2.9062
X2.7063Y-5.1563
X3.1063Y-5.1563
X7.8625Y-2.9063
X8.2625Y-2.9063
X10.2062Y-5.9062
X10.6062Y-5.9062
X7.1125Y-2.9063
X7.5125Y-2.9063
X7.3937Y-5.9062
X7.7938Y-5.9062
X13.1125Y-5.1562
X13.5125Y-5.1562
X6.3625Y-2.9063
X6.7625Y-2.9063
X4.5812Y-5.9062
X4.9813Y-5.9062
X5.9875Y-3.6563
X6.3875Y-3.6563
X4.8625Y-2.9063
X5.2625Y-2.9063
X9.175Y-4.4063
X9.575Y-4.4063
X13.0187Y-5.9062
X13.4187Y-5.9062
X13.1125Y-2.9062
X13.5125Y-2.9062
X12.0812Y-5.9062
X12.4812Y-5.9062
X11.1437Y-5.9062
X11.5437Y-5.9062
X2.7062Y-5.9062
X3.1062Y-5.9062
X13.2188Y-3.8312
X13.2188Y-4.2313
X4.1125Y-2.9063
X4.5125Y-2.9063
X9.3625Y-2.9063
X9.7625Y-2.9063
X12.0812Y-5.1562
X12.4812Y-5.1562
X7.8625Y-5.9063
X8.2625Y-5.9063
X10.3Y-5.9062
X10.7Y-5.9062
X12.8312Y-5.1562
X13.2312Y-5.1562
X11.9875Y-5.9062
X12.3875Y-5.9062
X7.4875Y-3.6563
X7.8875Y-3.6563
X11.9875Y-3.6563
X12.3875Y-3.6563
X2.8Y-5.905
X3.2Y-5.905
X4.675Y-4.4063
X5.075Y-4.4063
X5.6125Y-2.9063
X6.0125Y-2.9063
X2.7063Y-4.4063
X3.1063Y-4.4063
X3.3625Y-2.9062
X3.7625Y-2.9062
T3
X10.3125Y-6.1813
X12.9438Y-3.5625
X13.125Y-4.8812
X2.8125Y-4.8813
X3.75Y-4.8813
X13.4063Y-2.6313
X12.4688Y-2.6313
X9.5625Y-6.1813
X12.1875Y-4.8813
X5.625Y-6.1813
X5.0625Y-6.1813
X13.3125Y-4.1312
X5.8125Y-6.1813
X12.9438Y-4.5
X12.375Y-4.1313
T4
X12.2812Y-5.9062
X11.3438Y-5.9062
X2.9062Y-5.9062
X13.2188Y-4.0312
X4.3125Y-2.9063
X9.5625Y-2.9063
X12.2812Y-5.1562
X8.0625Y-5.9063
X10.5Y-5.9062
X13.0312Y-5.1562
X12.1875Y-5.9062
X7.6875Y-3.6563
X12.1875Y-3.6563
X3.0Y-5.905
X4.875Y-4.4063
X5.8125Y-2.9063
X2.9063Y-4.4063
X3.5625Y-2.9062
X8.625Y-4.4063
X3.8438Y-5.9062
X13.2188Y-4.4062
X11.25Y-5.1563
X10.875Y-4.4063
X12.6563Y-5.1563
X10.5Y-5.1563
X5.4375Y-3.6563
X9.75Y-5.1563
X5.625Y-4.4063
X11.25Y-5.9062
X11.4375Y-5.9062
X4.125Y-4.4063
X6.0Y-5.1563
X13.125Y-3.6562
X12.9375Y-2.9063
X7.875Y-4.4063
X11.8125Y-2.9063
X7.125Y-4.4063
X11.0625Y-2.9063
X12.0Y-5.1562
X6.375Y-4.4063
X7.3125Y-5.9062
X4.6875Y-3.6563
X3.0938Y-4.4063
X3.9375Y-3.6563
X10.3125Y-2.9063
X3.0Y-3.6563
X10.6875Y-3.6563
X4.125Y-5.905
X9.9375Y-3.6563
X8.8125Y-2.9063
X12.5625Y-2.9062
X9.1875Y-3.6563
X9.0Y-5.1563
X8.4375Y-3.6563
X8.25Y-5.1563
X7.5Y-5.1563
X13.125Y-5.9062
X6.75Y-5.1563
X3.94Y-5.905
X11.4375Y-3.6563
X5.25Y-5.1563
X4.5Y-5.1563
X3.75Y-5.1563
X4.875Y-5.905
X3.2812Y-5.1562
X12.8438Y-4.4062
X11.625Y-4.4063
X12.375Y-4.4063
X6.9375Y-3.6563
X10.125Y-4.4063
X2.8125Y-2.9062
X2.9063Y-5.1563
X8.0625Y-2.9063
X10.4062Y-5.9062
X7.3125Y-2.9063
X7.5938Y-5.9062
X13.3125Y-5.1562
X6.5625Y-2.9063
X4.7812Y-5.9062
X6.1875Y-3.6563
X5.0625Y-2.9063
X9.375Y-4.4063
X13.2188Y-5.9062
X13.3125Y-2.9062
T5
X2.8125Y-5.4813
X3.75Y-5.4813
X13.4063Y-3.2313
X12.4688Y-3.2313
X9.5625Y-5.5813
X12.1875Y-5.4813
X5.625Y-5.5813
X5.0625Y-5.5813
X13.3125Y-4.7313
X5.8125Y-5.5813
X13.5438Y-4.5
X12.375Y-4.7313
X10.3125Y-5.5813
X13.5438Y-3.5625
X13.125Y-5.4813
T0
M30
