M48
; DRILL file {KiCad 5.1.4+dfsg1-1~bpo10+1} date 2019年09月21日 星期六 15时36分12秒
; FORMAT={-:-/ absolute / inch / decimal}
; #@! TF.CreationDate,2019-09-21T15:36:12+08:00
; #@! TF.GenerationSoftware,Kicad,Pcbnew,5.1.4+dfsg1-1~bpo10+1
; #@! TF.FileFunction,Plated,1,2,PTH
FMAT,2
INCH
T1C0.0157
T2C0.0236
T3C0.0320
T4C0.0354
T5C0.0394
T6C0.0394
T7C0.0591
T8C0.0984
T9C0.0984
%
G90
G05
T1
X2.93Y-3.26
X3.0846Y-2.9554
X3.1299Y-2.6858
X3.2339Y-2.6854
X3.28Y-2.94
X3.47Y-5.68
X3.49Y-4.135
X3.505Y-5.475
X3.605Y-4.135
X3.625Y-3.2269
X3.67Y-3.415
X3.675Y-4.405
X3.8Y-3.17
X3.92Y-4.85
X3.935Y-3.2269
X4.14Y-3.735
X4.21Y-3.86
X4.265Y-5.515
X4.325Y-3.535
X4.33Y-3.84
X4.365Y-4.72
X4.395Y-4.005
X4.425Y-4.54
X4.48Y-3.245
X4.485Y-5.545
X4.485Y-5.7
X4.5461Y-4.365
X4.55Y-5.545
X4.57Y-3.735
X4.625Y-3.245
X4.63Y-4.66
X4.63Y-5.71
X4.72Y-5.045
X4.7369Y-4.6769
X4.7796Y-4.8104
X4.89Y-4.92
X4.9371Y-5.1479
X4.99Y-5.045
X5.09Y-5.27
X5.22Y-4.81
X5.265Y-5.77
X5.295Y-5.57
X5.345Y-5.57
X5.375Y-5.31
X5.435Y-5.57
X5.48Y-4.95
X5.48Y-5.045
X5.515Y-5.135
X5.515Y-5.19
X5.535Y-5.045
X5.56Y-3.305
X5.565Y-5.09
X5.7382Y-5.9311
X5.745Y-5.855
X5.805Y-5.81
X5.84Y-5.265
X5.845Y-4.01
X5.85Y-5.915
X5.905Y-4.01
X5.925Y-3.72
X5.965Y-4.05
X5.97Y-4.69
X5.98Y-3.39
X6.0Y-5.76
X6.0Y-5.815
X6.01Y-3.135
X6.02Y-4.64
X6.035Y-4.09
X6.095Y-5.55
X6.125Y-6.065
X6.195Y-3.275
X6.22Y-5.245
X6.23Y-5.87
X6.24Y-6.185
X6.25Y-5.025
X6.28Y-5.87
X6.32Y-5.78
X6.32Y-5.985
X6.3219Y-5.4919
X6.355Y-6.16
X6.3569Y-6.0219
X6.36Y-3.78
X6.36Y-5.87
X6.365Y-5.02
X6.4Y-5.55
X6.44Y-5.39
X6.4525Y-5.55
X6.49Y-5.9
X6.495Y-5.335
X6.495Y-5.39
X6.495Y-5.845
X6.495Y-5.955
X6.53Y-5.55
X6.555Y-5.335
X6.575Y-6.095
X6.615Y-5.335
X6.635Y-3.56
X6.65Y-5.965
X6.695Y-3.06
X6.695Y-5.49
X6.745Y-5.55
X6.75Y-4.27
X6.85Y-5.55
X6.8525Y-5.2225
X6.865Y-5.92
X6.88Y-5.76
X6.895Y-5.095
X6.905Y-5.595
X6.9325Y-6.105
X6.945Y-3.265
X6.975Y-4.86
X7.03Y-6.01
X7.11Y-5.195
X7.14Y-4.77
X7.16Y-3.78
X7.16Y-5.39
X7.19Y-5.965
X7.205Y-5.235
X7.2425Y-5.62
X7.285Y-5.62
X7.665Y-5.225
X7.85Y-3.78
X7.87Y-6.025
X7.8725Y-5.2775
X7.99Y-6.015
X8.105Y-5.42
X8.285Y-3.285
X8.4Y-3.285
X8.635Y-3.78
X8.685Y-4.86
X8.7Y-5.225
X8.79Y-3.465
X8.99Y-3.08
X8.99Y-3.285
X9.345Y-3.78
X9.4Y-3.975
X9.415Y-5.24
X9.475Y-3.975
X9.495Y-5.945
X9.53Y-4.015
X9.59Y-4.015
X9.615Y-6.03
X9.7201Y-6.098
X9.725Y-5.965
X9.835Y-3.09
X9.965Y-3.315
X9.975Y-5.235
X10.135Y-3.78
X10.1469Y-5.2769
X10.75Y-6.105
X10.795Y-4.85
X10.875Y-5.365
X10.9Y-3.78
X10.97Y-3.21
X11.585Y-5.445
X11.615Y-4.73
X11.72Y-3.24
X11.82Y-3.78
X12.16Y-2.855
X12.22Y-2.995
X12.315Y-3.895
X12.335Y-2.73
X12.34Y-3.78
X12.515Y-4.06
X12.53Y-4.625
X12.555Y-5.995
X12.66Y-3.985
X12.695Y-3.29
X12.795Y-3.17
X12.795Y-3.95
X12.795Y-5.04
X12.815Y-5.31
X12.87Y-4.28
X12.875Y-5.605
X12.9Y-3.385
X12.92Y-4.7
X12.97Y-5.53
X13.005Y-4.675
X13.065Y-4.625
X13.155Y-2.725
X13.155Y-4.16
X13.2625Y-5.5325
T3
X13.0187Y-3.9812
X13.0187Y-4.0812
X3.9875Y-6.1063
X10.825Y-4.6063
X10.925Y-4.6063
X6.5125Y-3.1062
X6.6125Y-3.1062
X10.6375Y-3.8562
X10.7375Y-3.8562
X4.7313Y-6.1063
X4.8281Y-6.1063
X10.075Y-4.6063
X10.175Y-4.6063
X13.075Y-3.4562
X13.175Y-3.4562
X12.0Y-4.27
X12.0Y-4.57
X7.5438Y-6.1063
X7.6437Y-6.1063
X5.95Y-5.3563
X6.05Y-5.3563
X7.6375Y-3.8562
X7.7375Y-3.8562
X7.825Y-4.6063
X7.925Y-4.6063
X13.1719Y-6.1063
X13.2687Y-6.1063
X10.45Y-5.3563
X10.55Y-5.3563
X3.0438Y-4.6063
X3.1438Y-4.6063
X8.2Y-5.3563
X8.3Y-5.3563
X9.5125Y-3.1062
X9.6125Y-3.1062
X11.3875Y-3.8562
X11.4875Y-3.8562
X12.325Y-4.6063
X12.425Y-4.6063
X6.1375Y-3.8562
X6.2375Y-3.8562
X3.5125Y-2.7062
X3.6125Y-2.7062
X7.2625Y-6.1063
X7.3625Y-6.1063
X4.125Y-4.97
X4.125Y-5.27
X4.075Y-4.6063
X4.175Y-4.6063
X4.6375Y-3.8562
X4.7375Y-3.8562
X2.8562Y-6.1063
X2.9531Y-6.1063
X12.2344Y-6.1063
X12.3312Y-6.1063
X12.8875Y-3.1062
X12.9875Y-3.1062
X12.2312Y-5.3563
X12.3312Y-5.3563
X2.7625Y-2.7062
X2.8625Y-2.7062
X4.45Y-5.3563
X4.55Y-5.3563
X5.065Y-3.555
X5.065Y-3.855
X5.3875Y-3.8562
X5.4875Y-3.8562
X11.95Y-5.3563
X12.05Y-5.3563
X8.95Y-5.3563
X9.05Y-5.3563
X5.7625Y-3.1062
X5.8625Y-3.1062
X4.075Y-6.1063
X4.175Y-6.1063
X9.325Y-4.6063
X9.425Y-4.6063
X8.0125Y-3.1062
X8.1125Y-3.1062
X9.1375Y-3.8562
X9.2375Y-3.8562
X12.9812Y-5.3563
X13.0812Y-5.3563
X5.805Y-3.555
X5.805Y-3.855
X11.7625Y-3.1062
X11.8625Y-3.1062
X11.575Y-4.6063
X11.675Y-4.6063
X5.0125Y-3.1062
X5.1125Y-3.1062
X8.575Y-4.6063
X8.675Y-4.6063
X11.2Y-5.3563
X11.3Y-5.3563
X7.45Y-5.3563
X7.55Y-5.3563
X8.7625Y-3.1062
X8.8625Y-3.1062
X8.3875Y-3.8562
X8.4875Y-3.8562
X6.325Y-4.6063
X6.425Y-4.6063
X3.79Y-4.205
X3.79Y-4.505
X13.075Y-6.1063
X11.0125Y-3.1062
X11.1125Y-3.1062
X12.1375Y-6.1063
X5.575Y-4.6063
X5.675Y-4.6063
X10.875Y-5.775
X10.875Y-6.075
X3.05Y-6.1063
X2.8562Y-5.3563
X2.9562Y-5.3563
X3.7Y-5.3563
X3.8Y-5.3563
X2.95Y-3.8562
X3.05Y-3.8562
X10.55Y-6.1063
X3.7937Y-6.1063
X3.8906Y-6.1063
X10.3562Y-6.1063
X10.4531Y-6.1063
X12.6062Y-5.3563
X12.7062Y-5.3563
X5.2Y-5.3563
X5.3Y-5.3563
X12.1375Y-3.8562
X12.2375Y-3.8562
X12.5125Y-3.1062
X12.6125Y-3.1062
X7.075Y-4.6063
X7.175Y-4.6063
X12.75Y-5.775
X12.75Y-6.075
X9.7Y-5.3563
X9.8Y-5.3563
X3.2312Y-5.3563
X3.3312Y-5.3563
X4.925Y-6.1063
X3.2438Y-4.6063
X12.7937Y-4.6063
X12.8937Y-4.6063
X7.2625Y-3.1062
X7.3625Y-3.1062
X9.8875Y-3.8562
X9.9875Y-3.8562
X6.8875Y-3.8562
X6.9875Y-3.8562
X2.59Y-3.595
X2.59Y-3.895
X4.2625Y-3.1062
X4.3625Y-3.1062
X8.0125Y-6.1063
X8.1125Y-6.1063
X4.825Y-4.6063
X4.925Y-4.6063
X13.2625Y-2.7062
X13.3625Y-2.7062
X6.7Y-5.3563
X6.8Y-5.3563
X13.1687Y-4.6063
X13.2687Y-4.6063
X2.8563Y-4.6063
X2.9563Y-4.6063
X10.2625Y-3.1062
X10.3625Y-3.1062
X11.825Y-5.775
X11.825Y-6.075
X11.625Y-4.925
X11.625Y-5.225
X5.23Y-4.205
X5.23Y-4.505
X13.2625Y-5.3563
X13.3625Y-5.3563
X3.8875Y-3.8562
X3.9875Y-3.8562
T4
X6.19Y-2.9
X6.19Y-2.7
X8.44Y-2.9
X8.75Y-6.15
X8.95Y-6.15
X6.94Y-2.9
X8.44Y-2.8
X6.19Y-3.1
X13.6Y-3.8
X8.44Y-3.0
X6.94Y-2.8
X9.19Y-3.1
X5.45Y-6.15
X6.94Y-3.1
X7.69Y-2.9
X8.85Y-6.15
X9.19Y-2.7
X13.6Y-4.2
X6.94Y-3.0
X13.6Y-3.9
X7.69Y-2.8
X13.6Y-4.1
X9.19Y-2.9
X13.6Y-4.0
X5.35Y-6.15
X7.69Y-3.1
X5.35Y-6.05
X7.69Y-3.0
X8.44Y-2.7
X8.45Y-6.15
X8.44Y-3.1
X8.55Y-6.15
X6.19Y-2.8
X7.69Y-2.7
X5.25Y-6.05
X9.19Y-3.0
X9.19Y-2.8
X5.25Y-6.15
X8.65Y-6.15
X5.45Y-6.05
X6.19Y-3.0
X6.94Y-2.7
T5
X11.85Y-5.3563
X11.1Y-6.1063
X11.4875Y-6.1063
X11.2Y-6.1063
X11.2957Y-6.1063
X11.3918Y-6.1063
X13.1625Y-5.3563
X13.4625Y-5.3563
X3.6938Y-6.1063
X4.275Y-6.1063
X12.4313Y-5.3563
X11.5875Y-6.1063
X7.1625Y-6.1063
X7.4534Y-6.1063
X7.7437Y-6.1063
T6
X12.1409Y-5.3563
T7
X2.7563Y-5.8062
X3.0063Y-5.7062
X13.3187Y-3.8813
X13.4187Y-4.1312
X4.1625Y-2.8063
X4.4125Y-2.7063
X9.4125Y-2.8063
X9.6625Y-2.7063
X12.1312Y-5.0562
X12.3812Y-4.9562
X7.9125Y-5.8063
X8.1625Y-5.7063
X10.35Y-5.8062
X10.6Y-5.7062
X12.8812Y-5.0562
X13.1312Y-4.9562
X12.0375Y-5.8062
X12.2875Y-5.7062
X7.5375Y-3.5563
X7.7875Y-3.4563
X12.0375Y-3.5563
X12.2875Y-3.4563
X2.85Y-5.805
X3.1Y-5.705
X4.725Y-4.3063
X4.975Y-4.2063
X5.6625Y-2.8063
X5.9125Y-2.7063
X2.7563Y-4.3063
X3.0063Y-4.2063
X3.4625Y-3.1062
X3.7125Y-3.0063
X8.475Y-4.3063
X8.725Y-4.2063
X3.6938Y-5.8062
X3.9438Y-5.7062
X13.0687Y-4.3062
X13.3187Y-4.2062
X11.1Y-5.0563
X11.35Y-4.9563
X10.725Y-4.3063
X10.975Y-4.2063
X12.5063Y-5.0563
X12.7563Y-4.9563
X10.35Y-5.0563
X10.6Y-4.9563
X5.2875Y-3.5563
X5.5375Y-3.4563
X9.6Y-5.0563
X9.85Y-4.9563
X5.475Y-4.3063
X5.725Y-4.2063
X11.1Y-5.8062
X11.35Y-5.7062
X11.2875Y-5.8062
X11.5375Y-5.7062
X3.975Y-4.3063
X4.225Y-4.2063
X5.85Y-5.0563
X6.1Y-4.9563
X13.025Y-3.8562
X13.275Y-3.7563
X12.7875Y-2.8063
X13.0375Y-2.7063
X7.725Y-4.3063
X7.975Y-4.2063
X11.6625Y-2.8063
X11.9125Y-2.7063
X6.975Y-4.3063
X7.225Y-4.2063
X10.9125Y-2.8063
X11.1625Y-2.7063
X11.85Y-5.0562
X12.1Y-4.9562
X6.225Y-4.3063
X6.475Y-4.2063
X7.1625Y-5.8062
X7.4125Y-5.7062
X4.5375Y-3.5563
X4.7875Y-3.4563
X2.9438Y-4.3063
X3.1938Y-4.2063
X3.7875Y-3.5563
X4.0375Y-3.4563
X10.1625Y-2.8063
X10.4125Y-2.7063
X2.85Y-3.5563
X3.1Y-3.4563
X10.5375Y-3.5563
X10.7875Y-3.4563
X3.975Y-5.805
X4.225Y-5.705
X9.7875Y-3.5563
X10.0375Y-3.4563
X8.6625Y-2.8063
X8.9125Y-2.7063
X12.4125Y-2.8062
X12.6625Y-2.7062
X9.0375Y-3.5563
X9.2875Y-3.4563
X8.85Y-5.0563
X9.1Y-4.9563
X8.2875Y-3.5563
X8.5375Y-3.4563
X8.1Y-5.0563
X8.35Y-4.9563
X7.35Y-5.0563
X7.6Y-4.9563
X12.975Y-5.8062
X13.225Y-5.7062
X6.6Y-5.0563
X6.85Y-4.9563
X3.79Y-5.805
X4.04Y-5.705
X11.2875Y-3.5563
X11.5375Y-3.4563
X5.1Y-5.0563
X5.35Y-4.9563
X4.35Y-5.0563
X4.6Y-4.9563
X3.6Y-5.0563
X3.85Y-4.9563
X4.725Y-5.805
X4.975Y-5.705
X3.1313Y-5.0562
X3.3813Y-4.9562
X12.6937Y-4.3062
X12.9437Y-4.2062
X11.475Y-4.3063
X11.725Y-4.2063
X12.225Y-4.3063
X12.475Y-4.2063
X6.7875Y-3.5563
X7.0375Y-3.4563
X9.975Y-4.3063
X10.225Y-4.2063
X2.7125Y-3.1062
X2.9625Y-3.0063
X2.7563Y-5.0563
X3.0063Y-4.9563
X7.9125Y-2.8063
X8.1625Y-2.7063
X10.2562Y-5.8062
X10.5062Y-5.7062
X7.1625Y-2.8063
X7.4125Y-2.7063
X7.4437Y-5.8062
X7.6937Y-5.7062
X13.1625Y-5.0562
X13.4125Y-4.9562
X6.4125Y-2.8063
X6.6625Y-2.7063
X4.6312Y-5.8062
X4.8812Y-5.7062
X6.0375Y-3.5563
X6.2875Y-3.4563
X4.9125Y-2.8063
X5.1625Y-2.7063
X9.225Y-4.3063
X9.475Y-4.2063
X13.0687Y-5.8062
X13.3187Y-5.7062
X13.2125Y-3.1062
X13.4625Y-3.0063
X12.1312Y-5.8062
X12.3812Y-5.7062
X11.1937Y-5.8062
X11.4437Y-5.7062
T9
X3.4445Y-3.6426
T2
G00X3.0091Y-2.6106
M15
G01X3.0091Y-2.6421
M16
G05
G00X3.0091Y-2.7689
M15
G01X3.0091Y-2.8122
M16
G05
G00X3.3492Y-2.6106
M15
G01X3.3492Y-2.6421
M16
G05
G00X3.3492Y-2.7689
M15
G01X3.3492Y-2.8122
M16
G05
T8
G00X2.4212Y-4.7686
M15
G01X2.5984Y-4.7686
M16
G05
G00X9.9031Y-5.8985
M15
G01X10.0016Y-5.8985
M16
G05
G00X13.5268Y-4.7686
M15
G01X13.704Y-4.7686
M16
G05
G00X12.6413Y-3.6426
M15
G01X12.7398Y-3.6426
M16
G05
G00X7.4504Y-4.3945
M15
G01X7.5489Y-4.3945
M16
G05
T0
M30
