G04 #@! TF.GenerationSoftware,KiCad,Pcbnew,5.1.4+dfsg1-1~bpo10+1*
G04 #@! TF.CreationDate,2019-09-21T15:36:56+08:00*
G04 #@! TF.ProjectId,keyboard,6b657962-6f61-4726-942e-6b696361645f,B*
G04 #@! TF.SameCoordinates,Original*
G04 #@! TF.FileFunction,Soldermask,Top*
G04 #@! TF.FilePolarity,Negative*
%FSLAX46Y46*%
G04 Gerber Fmt 4.6, Leading zero omitted, Abs format (unit mm)*
G04 Created by KiCad (PCBNEW 5.1.4+dfsg1-1~bpo10+1) date 2019-09-21 15:36:56*
%MOMM*%
%LPD*%
G04 APERTURE LIST*
%ADD10C,0.803200*%
%ADD11O,1.103200X1.903200*%
%ADD12O,1.103200X2.203200*%
%ADD13C,2.203200*%
%ADD14C,1.803400*%
%ADD15C,2.003200*%
%ADD16C,3.251200*%
%ADD17C,4.183400*%
%ADD18C,4.183380*%
%ADD19C,2.702560*%
%ADD20C,1.902460*%
%ADD21O,10.203180X5.204460*%
%ADD22C,7.203440*%
%ADD23C,7.204500*%
%ADD24C,1.803200*%
G04 APERTURE END LIST*
D10*
X77860000Y-70400000D03*
X83640000Y-70400000D03*
D11*
X85070000Y-66710000D03*
X76430000Y-66710000D03*
D12*
X85070000Y-70880000D03*
X76430000Y-70880000D03*
D13*
X334327500Y-136048750D03*
X341947500Y-136048750D03*
X315753750Y-136048750D03*
X300990000Y-136048750D03*
X308380000Y-136048750D03*
X294322500Y-155098750D03*
X281940000Y-155098750D03*
X196691250Y-155098750D03*
X181927500Y-155098750D03*
X189317500Y-155098750D03*
X108585000Y-155098750D03*
X93821250Y-155098750D03*
D14*
X120173750Y-155098750D03*
X122633750Y-155098750D03*
X96361250Y-155098750D03*
X98821250Y-155098750D03*
X125095000Y-155098750D03*
X101282500Y-155098750D03*
X72548750Y-155098750D03*
X75008750Y-155098750D03*
X77470000Y-155098750D03*
X263048750Y-155098750D03*
X265508750Y-155098750D03*
X267970000Y-155098750D03*
D13*
X286911250Y-155098750D03*
X289351250Y-155098750D03*
X284480000Y-155098750D03*
X291782500Y-155098750D03*
D14*
X310753750Y-155098750D03*
X313213750Y-155098750D03*
X308292500Y-155098750D03*
X334566250Y-155098750D03*
X337026250Y-155098750D03*
X332105000Y-155098750D03*
X82392520Y-117000020D03*
X103505000Y-155098750D03*
X106045000Y-155098750D03*
D15*
X157226000Y-71120000D03*
X157226000Y-73660000D03*
X157226000Y-76200000D03*
X157226000Y-68580000D03*
X176276000Y-78740000D03*
X176276000Y-76200000D03*
X176276000Y-68580000D03*
X157226000Y-78740000D03*
X195326000Y-71120000D03*
X195326000Y-78740000D03*
X195326000Y-76200000D03*
X195326000Y-73660000D03*
X214376000Y-68580000D03*
X214376000Y-73660000D03*
X214376000Y-71120000D03*
X214376000Y-76200000D03*
X195326000Y-68580000D03*
X138430000Y-153670000D03*
X138430000Y-156210000D03*
X345440000Y-106680000D03*
X345440000Y-104140000D03*
X345440000Y-101600000D03*
X345440000Y-99060000D03*
X345440000Y-96520000D03*
X133350000Y-156210000D03*
X133350000Y-153670000D03*
X135890000Y-156210000D03*
X135890000Y-153670000D03*
X224790000Y-156210000D03*
X219710000Y-156210000D03*
X214630000Y-156210000D03*
X222250000Y-156210000D03*
X217170000Y-156210000D03*
X227330000Y-156210000D03*
X176276000Y-71120000D03*
X176276000Y-73660000D03*
X233426000Y-78740000D03*
X233426000Y-68580000D03*
X233426000Y-73660000D03*
X233426000Y-76200000D03*
X233426000Y-71120000D03*
X214376000Y-78740000D03*
D14*
X334486250Y-116998750D03*
X337026250Y-116998750D03*
X330676250Y-101123750D03*
X330676250Y-103663750D03*
X327342500Y-78898750D03*
X329882500Y-78898750D03*
X72548750Y-136048750D03*
X75088750Y-136048750D03*
X72550020Y-117000020D03*
X75090020Y-117000020D03*
X77312520Y-117000020D03*
X79852520Y-117000020D03*
X103505000Y-116998750D03*
X106045000Y-116998750D03*
X122555000Y-116998750D03*
X125095000Y-116998750D03*
X141605000Y-116998750D03*
X144145000Y-116998750D03*
X117792500Y-97948750D03*
X120332500Y-97948750D03*
X336867500Y-136048750D03*
X339407500Y-136048750D03*
X310673750Y-136048750D03*
X313213750Y-136048750D03*
X303530000Y-136048750D03*
X306070000Y-136048750D03*
X320198750Y-136048750D03*
X322738750Y-136048750D03*
X274955000Y-116998750D03*
X277495000Y-116998750D03*
X113030000Y-136048750D03*
X115570000Y-136048750D03*
X93980000Y-136048750D03*
X96520000Y-136048750D03*
X82073750Y-136048750D03*
X84613750Y-136048750D03*
X208280000Y-136048750D03*
X210820000Y-136048750D03*
X189230000Y-136048750D03*
X191770000Y-136048750D03*
X170180000Y-136048750D03*
X172720000Y-136048750D03*
X151130000Y-136048750D03*
X153670000Y-136048750D03*
X294005000Y-116998750D03*
X296545000Y-116998750D03*
X132080000Y-136048750D03*
X134620000Y-136048750D03*
X255905000Y-116998750D03*
X258445000Y-116998750D03*
X236855000Y-116998750D03*
X239395000Y-116998750D03*
X324961250Y-116998750D03*
X327501250Y-116998750D03*
X313055000Y-116998750D03*
X315595000Y-116998750D03*
X227330000Y-136048750D03*
X229870000Y-136048750D03*
X246380000Y-136048750D03*
X248920000Y-136048750D03*
X265430000Y-136048750D03*
X267970000Y-136048750D03*
X284480000Y-136048750D03*
X287020000Y-136048750D03*
X339407500Y-68738750D03*
X336867500Y-68738750D03*
X191611250Y-155098750D03*
X194151250Y-155098750D03*
X298767500Y-78898750D03*
X301307500Y-78898750D03*
X174942500Y-97948750D03*
X177482500Y-97948750D03*
X155892500Y-97948750D03*
X158432500Y-97948750D03*
X279717500Y-78898750D03*
X282257500Y-78898750D03*
X260667500Y-78898750D03*
X263207500Y-78898750D03*
X241617500Y-78898750D03*
X244157500Y-78898750D03*
X222567500Y-78898750D03*
X225107500Y-78898750D03*
X317817500Y-78898750D03*
X320357500Y-78898750D03*
X193992500Y-97948750D03*
X196532500Y-97948750D03*
X127317500Y-78898750D03*
X129857500Y-78898750D03*
X108267500Y-78898750D03*
X110807500Y-78898750D03*
X91757500Y-68738750D03*
X89217500Y-68738750D03*
X203517500Y-78898750D03*
X206057500Y-78898750D03*
X184467500Y-78898750D03*
X187007500Y-78898750D03*
X165417500Y-78898750D03*
X167957500Y-78898750D03*
X146367500Y-78898750D03*
X148907500Y-78898750D03*
X213042500Y-97948750D03*
X215582500Y-97948750D03*
X74930000Y-97948750D03*
X77470000Y-97948750D03*
X98742500Y-97948750D03*
X101282500Y-97948750D03*
X136842500Y-97948750D03*
X139382500Y-97948750D03*
X308292500Y-97948750D03*
X310832500Y-97948750D03*
X334645000Y-87788750D03*
X332105000Y-87788750D03*
X232092500Y-97948750D03*
X234632500Y-97948750D03*
X251142500Y-97948750D03*
X253682500Y-97948750D03*
X270192500Y-97948750D03*
X272732500Y-97948750D03*
X289242500Y-97948750D03*
X291782500Y-97948750D03*
X160655000Y-116998750D03*
X163195000Y-116998750D03*
X179705000Y-116998750D03*
X182245000Y-116998750D03*
X198755000Y-116998750D03*
X201295000Y-116998750D03*
X217805000Y-116998750D03*
X220345000Y-116998750D03*
X203517500Y-155098750D03*
X206057500Y-155098750D03*
X184467500Y-155098750D03*
X187007500Y-155098750D03*
X329723750Y-136048750D03*
X332263750Y-136048750D03*
D16*
X340520020Y-66835020D03*
D17*
X340520020Y-82075020D03*
D16*
X71437500Y-123985020D03*
D17*
X71437500Y-139225020D03*
D16*
X95250000Y-123985020D03*
D17*
X95250000Y-139225020D03*
D16*
X309562500Y-123985020D03*
D17*
X309562500Y-139225020D03*
D16*
X338137500Y-104933750D03*
D17*
X338137500Y-120173750D03*
D16*
X314325000Y-104935020D03*
D17*
X314325000Y-120175020D03*
D16*
X328772520Y-90487500D03*
D17*
X344012520Y-90487500D03*
D16*
X328772520Y-114300000D03*
D17*
X344012520Y-114300000D03*
D16*
X316707520Y-66835020D03*
D17*
X316707520Y-82075020D03*
D16*
X242887500Y-157005020D03*
D17*
X242887500Y-141765020D03*
D16*
X142875000Y-157005020D03*
D17*
X142875000Y-141765020D03*
D16*
X128587500Y-157005020D03*
D17*
X128587500Y-141765020D03*
D16*
X147637500Y-157005020D03*
D17*
X147637500Y-141765020D03*
D16*
X261937500Y-157005020D03*
D17*
X261937500Y-141765020D03*
D16*
X333375000Y-123983750D03*
D17*
X333375000Y-139223750D03*
D18*
X78582520Y-111920020D03*
D19*
X81122520Y-106840020D03*
X74772520Y-109380020D03*
D20*
X73502520Y-111920020D03*
X83662520Y-111920020D03*
D18*
X261937500Y-73820020D03*
D19*
X264477500Y-68740020D03*
X258127500Y-71280020D03*
D20*
X256857500Y-73820020D03*
X267017500Y-73820020D03*
D18*
X157162500Y-92870020D03*
D19*
X159702500Y-87790020D03*
X153352500Y-90330020D03*
D20*
X152082500Y-92870020D03*
X162242500Y-92870020D03*
D18*
X176212500Y-92870020D03*
D19*
X178752500Y-87790020D03*
X172402500Y-90330020D03*
D20*
X171132500Y-92870020D03*
X181292500Y-92870020D03*
D18*
X214312500Y-92870020D03*
D19*
X216852500Y-87790020D03*
X210502500Y-90330020D03*
D20*
X209232500Y-92870020D03*
X219392500Y-92870020D03*
D18*
X233362500Y-92870020D03*
D19*
X235902500Y-87790020D03*
X229552500Y-90330020D03*
D20*
X228282500Y-92870020D03*
X238442500Y-92870020D03*
D18*
X252412500Y-92870020D03*
D19*
X254952500Y-87790020D03*
X248602500Y-90330020D03*
D20*
X247332500Y-92870020D03*
X257492500Y-92870020D03*
D18*
X271462500Y-92870020D03*
D19*
X274002500Y-87790020D03*
X267652500Y-90330020D03*
D20*
X266382500Y-92870020D03*
X276542500Y-92870020D03*
D18*
X290512500Y-92870020D03*
D19*
X293052500Y-87790020D03*
X286702500Y-90330020D03*
D20*
X285432500Y-92870020D03*
X295592500Y-92870020D03*
D18*
X333375000Y-92868750D03*
D19*
X330835000Y-97948750D03*
X337185000Y-95408750D03*
D20*
X338455000Y-92868750D03*
X328295000Y-92868750D03*
D18*
X104775000Y-111920020D03*
D19*
X107315000Y-106840020D03*
X100965000Y-109380020D03*
D20*
X99695000Y-111920020D03*
X109855000Y-111920020D03*
D18*
X123825000Y-111920020D03*
D19*
X126365000Y-106840020D03*
X120015000Y-109380020D03*
D20*
X118745000Y-111920020D03*
X128905000Y-111920020D03*
D18*
X142875000Y-111920020D03*
D19*
X145415000Y-106840020D03*
X139065000Y-109380020D03*
D20*
X137795000Y-111920020D03*
X147955000Y-111920020D03*
D18*
X161925000Y-111920020D03*
D19*
X164465000Y-106840020D03*
X158115000Y-109380020D03*
D20*
X156845000Y-111920020D03*
X167005000Y-111920020D03*
D18*
X180975000Y-111920020D03*
D19*
X183515000Y-106840020D03*
X177165000Y-109380020D03*
D20*
X175895000Y-111920020D03*
X186055000Y-111920020D03*
D18*
X200025000Y-111920020D03*
D19*
X202565000Y-106840020D03*
X196215000Y-109380020D03*
D20*
X194945000Y-111920020D03*
X205105000Y-111920020D03*
D18*
X219075000Y-111920020D03*
D19*
X221615000Y-106840020D03*
X215265000Y-109380020D03*
D20*
X213995000Y-111920020D03*
X224155000Y-111920020D03*
D18*
X109537500Y-73820020D03*
D19*
X112077500Y-68740020D03*
X105727500Y-71280020D03*
D20*
X104457500Y-73820020D03*
X114617500Y-73820020D03*
D18*
X128587500Y-73820020D03*
D19*
X131127500Y-68740020D03*
X124777500Y-71280020D03*
D20*
X123507500Y-73820020D03*
X133667500Y-73820020D03*
D18*
X166687500Y-73820020D03*
D19*
X169227500Y-68740020D03*
X162877500Y-71280020D03*
D20*
X161607500Y-73820020D03*
X171767500Y-73820020D03*
D18*
X185737500Y-73820020D03*
D19*
X188277500Y-68740020D03*
X181927500Y-71280020D03*
D20*
X180657500Y-73820020D03*
X190817500Y-73820020D03*
D18*
X204787500Y-73820020D03*
D19*
X207327500Y-68740020D03*
X200977500Y-71280020D03*
D20*
X199707500Y-73820020D03*
X209867500Y-73820020D03*
D18*
X223837500Y-73820020D03*
D19*
X226377500Y-68740020D03*
X220027500Y-71280020D03*
D20*
X218757500Y-73820020D03*
X228917500Y-73820020D03*
D18*
X280987500Y-73820020D03*
D19*
X283527500Y-68740020D03*
X277177500Y-71280020D03*
D20*
X275907500Y-73820020D03*
X286067500Y-73820020D03*
D18*
X300037500Y-73820020D03*
D19*
X302577500Y-68740020D03*
X296227500Y-71280020D03*
D20*
X294957500Y-73820020D03*
X305117500Y-73820020D03*
D18*
X328612500Y-73820020D03*
D19*
X331152500Y-68740020D03*
X324802500Y-71280020D03*
D20*
X323532500Y-73820020D03*
X333692500Y-73820020D03*
D18*
X76200000Y-92870020D03*
D19*
X78740000Y-87790020D03*
X72390000Y-90330020D03*
D20*
X71120000Y-92870020D03*
X81280000Y-92870020D03*
D18*
X100012500Y-92870020D03*
D19*
X102552500Y-87790020D03*
X96202500Y-90330020D03*
D20*
X94932500Y-92870020D03*
X105092500Y-92870020D03*
D18*
X119062500Y-92870020D03*
D19*
X121602500Y-87790020D03*
X115252500Y-90330020D03*
D20*
X113982500Y-92870020D03*
X124142500Y-92870020D03*
D18*
X138112500Y-92870020D03*
D19*
X140652500Y-87790020D03*
X134302500Y-90330020D03*
D20*
X133032500Y-92870020D03*
X143192500Y-92870020D03*
D18*
X321470020Y-130970020D03*
D19*
X324010020Y-125890020D03*
X317660020Y-128430020D03*
D20*
X316390020Y-130970020D03*
X326550020Y-130970020D03*
D18*
X73818750Y-150018750D03*
D19*
X76358750Y-144938750D03*
X70008750Y-147478750D03*
D20*
X68738750Y-150018750D03*
X78898750Y-150018750D03*
D18*
X121443750Y-150018750D03*
D19*
X123983750Y-144938750D03*
X117633750Y-147478750D03*
D20*
X116363750Y-150018750D03*
X126523750Y-150018750D03*
D18*
X192881250Y-150018750D03*
D19*
X195421250Y-144938750D03*
X189071250Y-147478750D03*
D20*
X187801250Y-150018750D03*
X197961250Y-150018750D03*
D18*
X264318750Y-150018750D03*
D19*
X266858750Y-144938750D03*
X260508750Y-147478750D03*
D20*
X259238750Y-150018750D03*
X269398750Y-150018750D03*
D18*
X288131250Y-150018750D03*
D19*
X290671250Y-144938750D03*
X284321250Y-147478750D03*
D20*
X283051250Y-150018750D03*
X293211250Y-150018750D03*
D18*
X311943750Y-150018750D03*
D19*
X314483750Y-144938750D03*
X308133750Y-147478750D03*
D20*
X306863750Y-150018750D03*
X317023750Y-150018750D03*
D18*
X335756250Y-150018750D03*
D19*
X338296250Y-144938750D03*
X331946250Y-147478750D03*
D20*
X330676250Y-150018750D03*
X340836250Y-150018750D03*
D18*
X238125000Y-111920020D03*
D19*
X240665000Y-106840020D03*
X234315000Y-109380020D03*
D20*
X233045000Y-111920020D03*
X243205000Y-111920020D03*
D18*
X257175000Y-111920020D03*
D19*
X259715000Y-106840020D03*
X253365000Y-109380020D03*
D20*
X252095000Y-111920020D03*
X262255000Y-111920020D03*
D18*
X295275000Y-111920020D03*
D19*
X297815000Y-106840020D03*
X291465000Y-109380020D03*
D20*
X290195000Y-111920020D03*
X300355000Y-111920020D03*
D18*
X326231250Y-111918750D03*
D19*
X328771250Y-106838750D03*
X322421250Y-109378750D03*
D20*
X321151250Y-111918750D03*
X331311250Y-111918750D03*
D18*
X83343750Y-130968750D03*
D19*
X85883750Y-125888750D03*
X79533750Y-128428750D03*
D20*
X78263750Y-130968750D03*
X88423750Y-130968750D03*
D18*
X114300000Y-130970020D03*
D19*
X116840000Y-125890020D03*
X110490000Y-128430020D03*
D20*
X109220000Y-130970020D03*
X119380000Y-130970020D03*
D18*
X133350000Y-130970020D03*
D19*
X135890000Y-125890020D03*
X129540000Y-128430020D03*
D20*
X128270000Y-130970020D03*
X138430000Y-130970020D03*
D18*
X171450000Y-130970020D03*
D19*
X173990000Y-125890020D03*
X167640000Y-128430020D03*
D20*
X166370000Y-130970020D03*
X176530000Y-130970020D03*
D18*
X190500000Y-130970020D03*
D19*
X193040000Y-125890020D03*
X186690000Y-128430020D03*
D20*
X185420000Y-130970020D03*
X195580000Y-130970020D03*
D18*
X209550000Y-130970020D03*
D19*
X212090000Y-125890020D03*
X205740000Y-128430020D03*
D20*
X204470000Y-130970020D03*
X214630000Y-130970020D03*
D18*
X228600000Y-130970020D03*
D19*
X231140000Y-125890020D03*
X224790000Y-128430020D03*
D20*
X223520000Y-130970020D03*
X233680000Y-130970020D03*
D18*
X247650000Y-130970020D03*
D19*
X250190000Y-125890020D03*
X243840000Y-128430020D03*
D20*
X242570000Y-130970020D03*
X252730000Y-130970020D03*
D18*
X266700000Y-130970020D03*
D19*
X269240000Y-125890020D03*
X262890000Y-128430020D03*
D20*
X261620000Y-130970020D03*
X271780000Y-130970020D03*
D18*
X285750000Y-130970020D03*
D19*
X288290000Y-125890020D03*
X281940000Y-128430020D03*
D20*
X280670000Y-130970020D03*
X290830000Y-130970020D03*
D18*
X97631250Y-150018750D03*
D19*
X100171250Y-144938750D03*
X93821250Y-147478750D03*
D20*
X92551250Y-150018750D03*
X102711250Y-150018750D03*
D18*
X152400000Y-130970020D03*
D19*
X154940000Y-125890020D03*
X148590000Y-128430020D03*
D20*
X147320000Y-130970020D03*
X157480000Y-130970020D03*
D18*
X147637500Y-73820020D03*
D19*
X150177500Y-68740020D03*
X143827500Y-71280020D03*
D20*
X142557500Y-73820020D03*
X152717500Y-73820020D03*
D18*
X242887500Y-73820020D03*
D19*
X245427500Y-68740020D03*
X239077500Y-71280020D03*
D20*
X237807500Y-73820020D03*
X247967500Y-73820020D03*
D18*
X309562500Y-92870020D03*
D19*
X312102500Y-87790020D03*
X305752500Y-90330020D03*
D20*
X304482500Y-92870020D03*
X314642500Y-92870020D03*
D18*
X195262500Y-92870020D03*
D19*
X197802500Y-87790020D03*
X191452500Y-90330020D03*
D20*
X190182500Y-92870020D03*
X200342500Y-92870020D03*
D18*
X276225000Y-111920020D03*
D19*
X278765000Y-106840020D03*
X272415000Y-109380020D03*
D20*
X271145000Y-111920020D03*
X281305000Y-111920020D03*
D14*
X72707500Y-68738750D03*
X70167500Y-68738750D03*
D18*
X335756250Y-111918750D03*
D19*
X338296250Y-106838750D03*
X331946250Y-109378750D03*
D20*
X330676250Y-111918750D03*
X340836250Y-111918750D03*
D18*
X285750000Y-150018750D03*
D19*
X288290000Y-144938750D03*
X281940000Y-147478750D03*
D20*
X280670000Y-150018750D03*
X290830000Y-150018750D03*
D18*
X95250000Y-130970020D03*
D19*
X97790000Y-125890020D03*
X91440000Y-128430020D03*
D20*
X90170000Y-130970020D03*
X100330000Y-130970020D03*
D18*
X338137500Y-130968750D03*
D19*
X340677500Y-125888750D03*
X334327500Y-128428750D03*
D20*
X333057500Y-130968750D03*
X343217500Y-130968750D03*
D18*
X76200000Y-149987000D03*
D19*
X78740000Y-144907000D03*
X72390000Y-147447000D03*
D20*
X71120000Y-149987000D03*
X81280000Y-149987000D03*
D18*
X104775000Y-149987000D03*
D19*
X107315000Y-144907000D03*
X100965000Y-147447000D03*
D20*
X99695000Y-149987000D03*
X109855000Y-149987000D03*
D18*
X100076000Y-149987000D03*
D19*
X102616000Y-144907000D03*
X96266000Y-147447000D03*
D20*
X94996000Y-149987000D03*
X105156000Y-149987000D03*
D18*
X266700000Y-150018750D03*
D19*
X269240000Y-144938750D03*
X262890000Y-147478750D03*
D20*
X261620000Y-150018750D03*
X271780000Y-150018750D03*
D18*
X290512500Y-150018750D03*
D19*
X293052500Y-144938750D03*
X286702500Y-147478750D03*
D20*
X285432500Y-150018750D03*
X295592500Y-150018750D03*
D18*
X123825000Y-149987000D03*
D19*
X126365000Y-144907000D03*
X120015000Y-147447000D03*
D20*
X118745000Y-149987000D03*
X128905000Y-149987000D03*
D18*
X309562500Y-150018750D03*
D19*
X312102500Y-144938750D03*
X305752500Y-147478750D03*
D20*
X304482500Y-150018750D03*
X314642500Y-150018750D03*
D18*
X333375000Y-150018750D03*
D19*
X335915000Y-144938750D03*
X329565000Y-147478750D03*
D20*
X328295000Y-150018750D03*
X338455000Y-150018750D03*
D18*
X204787500Y-150020020D03*
D19*
X207327500Y-144940020D03*
X200977500Y-147480020D03*
D20*
X199707500Y-150020020D03*
X209867500Y-150020020D03*
D18*
X185737500Y-150018750D03*
D19*
X188277500Y-144938750D03*
X181927500Y-147478750D03*
D20*
X180657500Y-150018750D03*
X190817500Y-150018750D03*
D18*
X73820020Y-130970020D03*
D19*
X76360020Y-125890020D03*
X70010020Y-128430020D03*
D20*
X68740020Y-130970020D03*
X78900020Y-130970020D03*
D18*
X330993750Y-130968750D03*
D19*
X333533750Y-125888750D03*
X327183750Y-128428750D03*
D20*
X325913750Y-130968750D03*
X336073750Y-130968750D03*
D18*
X73820020Y-111920020D03*
D19*
X76360020Y-106840020D03*
X70010020Y-109380020D03*
D20*
X68740020Y-111920020D03*
X78900020Y-111920020D03*
D18*
X319087500Y-73818750D03*
D19*
X321627500Y-68738750D03*
X315277500Y-71278750D03*
D20*
X314007500Y-73818750D03*
X324167500Y-73818750D03*
D18*
X338137500Y-73818750D03*
D19*
X335597500Y-78898750D03*
X341947500Y-76358750D03*
D20*
X343217500Y-73818750D03*
X333057500Y-73818750D03*
D18*
X90487500Y-73818750D03*
D19*
X87947500Y-78898750D03*
X94297500Y-76358750D03*
D20*
X95567500Y-73818750D03*
X85407500Y-73818750D03*
D18*
X71437500Y-73818750D03*
D19*
X68897500Y-78898750D03*
X75247500Y-76358750D03*
D20*
X76517500Y-73818750D03*
X66357500Y-73818750D03*
D18*
X335756250Y-102393750D03*
D19*
X340836250Y-104933750D03*
X338296250Y-98583750D03*
D20*
X335756250Y-97313750D03*
X335756250Y-107473750D03*
D18*
X311943750Y-130968750D03*
D19*
X314483750Y-125888750D03*
X308133750Y-128428750D03*
D20*
X306863750Y-130968750D03*
X317023750Y-130968750D03*
D18*
X304800000Y-130968750D03*
D19*
X307340000Y-125888750D03*
X300990000Y-128428750D03*
D20*
X299720000Y-130968750D03*
X309880000Y-130968750D03*
D18*
X314325000Y-111920020D03*
D19*
X316865000Y-106840020D03*
X310515000Y-109380020D03*
D20*
X309245000Y-111920020D03*
X319405000Y-111920020D03*
D21*
X345831200Y-121121200D03*
X63748900Y-121121200D03*
D22*
X322339900Y-92520800D03*
X252789400Y-149820700D03*
X190490000Y-111620000D03*
D23*
X87489300Y-92520800D03*
D24*
X104775000Y-126238000D03*
X104775000Y-133858000D03*
X132842000Y-106807000D03*
X132842000Y-114427000D03*
X147447000Y-97917000D03*
X147447000Y-90297000D03*
X128651000Y-97917000D03*
X128651000Y-90297000D03*
X304800000Y-116078000D03*
X304800000Y-108458000D03*
X295275000Y-132715000D03*
X295275000Y-125095000D03*
X65786000Y-98933000D03*
X65786000Y-91313000D03*
X300355000Y-146685000D03*
X300355000Y-154305000D03*
X323850000Y-146685000D03*
X323850000Y-154305000D03*
X276225000Y-146685000D03*
X276225000Y-154305000D03*
X96266000Y-106807000D03*
X96266000Y-114427000D03*
M02*
